Coordinates
version=1
nRows=21
nColumns=12
inDegrees=yes

Units are S.I. units (second, meters, Newtons, ...)
Angles are in degrees

endheader
time	SC_y	SC_z	SC_x	AC_y	AC_z	AC_x	GH_y	GH_z	GH_yy	EL_x	PS_y
       0.0              -37.54          39.76           59.7          43.55          6.689          2.964          1.489          27.49          -47.3          139.7          14.75
   0.04607              -37.54          39.76           59.7          43.55          6.685          2.962          1.465          27.49         -47.27          139.7          14.76
   0.09214              -37.54          39.76           59.7          43.56          6.682          2.959          1.438          27.49         -47.25          139.7          14.78
    0.1382              -37.54          39.76           59.7          43.56          6.678          2.956           1.41          27.49         -47.22          139.7           14.8
    0.1843              -37.54          39.75          59.71          43.57          6.673          2.953          1.381          27.49         -47.19          139.6          14.82
    0.2304              -37.55          39.75          59.71          43.57          6.669           2.95          1.349          27.48         -47.16          139.6          14.84
    0.2764              -37.55          39.75          59.71          43.58          6.664          2.946          1.315          27.48         -47.13          139.6          14.86
    0.3225              -37.55          39.75          59.72          43.58          6.659          2.942          1.279          27.48         -47.09          139.6          14.89
    0.3686              -37.55          39.75          59.72          43.59          6.653          2.938           1.24          27.48         -47.05          139.6          14.91
    0.4146              -37.55          39.74          59.72          43.59          6.647          2.934          1.198          27.47         -47.01          139.6          14.94
    0.4607              -37.56          39.74          59.73           43.6          6.641          2.929          1.153          27.47         -46.97          139.6          14.97
    0.5068              -37.56          39.74          59.73          43.61          6.634          2.924          1.105          27.47         -46.92          139.6           15.0
    0.5529              -37.56          39.74          59.74          43.61          6.627          2.918          1.053          27.46         -46.87          139.6          15.04
    0.5989              -37.56          39.73          59.74          43.62          6.619          2.912          0.997          27.46         -46.82          139.6          15.07
     0.645              -37.57          39.73          59.75          43.63           6.61          2.906         0.9363          27.46         -46.76          139.5          15.11
    0.6911              -37.57          39.73          59.75          43.64          6.601          2.899         0.8704          27.45         -46.69          139.5          15.16
    0.7371              -37.57          39.72          59.76          43.65          6.591          2.891         0.7988          27.45         -46.62          139.5          15.21
    0.7832              -37.58          39.72          59.77          43.66           6.58          2.883         0.7209          27.44         -46.55          139.5          15.26
    0.8293              -37.58          39.71          59.77          43.67          6.568          2.874         0.6357          27.44         -46.46          139.5          15.31
    0.8754              -37.59          39.71          59.78          43.69          6.555          2.864         0.5425          27.43         -46.37          139.4          15.38
    0.9214              -37.59           39.7          59.79           43.7           6.54          2.853         0.4402          27.42         -46.27          139.4          15.44
